<svg width="59" height="59" viewBox="0 0 59 59" fill="none" xmlns="http://www.w3.org/2000/svg">
<path fill-rule="evenodd" clip-rule="evenodd" d="M43.9759 41.2769C47.731 36.9032 50 31.2166 50 25C50 11.1929 38.8071 0 25 0C11.1929 0 0 11.1929 0 25C0 38.8071 11.1929 50 25 50C31.1727 50 36.8229 47.7629 41.184 44.0553C41.2621 44.1675 41.3529 44.2733 41.4564 44.3707L55.5436 57.6293C56.3479 58.3863 57.6137 58.3479 58.3707 57.5436C59.1278 56.7393 59.0894 55.4735 58.2851 54.7165L44.1979 41.4579C44.1272 41.3914 44.053 41.3311 43.9759 41.2769ZM25 46.0161C13.3931 46.0161 3.98387 36.6069 3.98387 25C3.98387 13.3931 13.3931 3.98387 25 3.98387C36.6069 3.98387 46.0161 13.3931 46.0161 25C46.0161 36.6069 36.6069 46.0161 25 46.0161Z" fill="white"/>
</svg>
