<svg width="23" height="22" viewBox="0 0 23 22" fill="none" xmlns="http://www.w3.org/2000/svg">
<path d="M21.9937 15.9624C21.0812 15.0249 18.4874 13.2686 16.7874 13.2686C16.3937 13.2686 16.0499 13.3561 15.7687 13.5374C14.9374 14.0686 14.2749 14.4811 13.9562 14.4811C13.7812 14.4811 13.5937 14.3249 13.1812 13.9686L13.1124 13.9061C11.9687 12.9124 11.7249 12.6561 11.2812 12.1936L11.1687 12.0749C11.0874 11.9936 11.0187 11.9186 10.9499 11.8499C10.5624 11.4499 10.2812 11.1624 9.28741 10.0374L9.24366 9.98738C8.76866 9.44988 8.45616 9.09988 8.43741 8.84363C8.41866 8.59363 8.63741 8.18738 9.19366 7.43113C9.86866 6.51863 9.89366 5.39363 9.27491 4.08738C8.78116 3.05613 7.97491 2.06863 7.26241 1.19988L7.19991 1.12488C6.58741 0.374878 5.87491 -0.00012207 5.08116 -0.00012207C4.19991 -0.00012207 3.46866 0.474878 3.08116 0.724878C3.04991 0.743628 3.01866 0.768628 2.98741 0.787378C2.11866 1.33738 1.48741 2.09363 1.24991 2.86238C0.893658 4.01863 0.656158 5.51863 2.36241 8.63738C3.83741 11.3374 5.17491 13.1499 7.29991 15.3311C9.29991 17.3811 10.1874 18.0436 12.1749 19.4811C14.3874 21.0811 16.5124 21.9999 17.9999 21.9999C19.3812 21.9999 20.4687 21.9999 22.0187 20.1311C23.6437 18.1686 22.9687 16.9686 21.9937 15.9624Z" fill="white"/>
</svg>
